<svg xmlns="http://www.w3.org/2000/svg" width="304" height="484" viewBox="0 0 304 484" version="1.1"><path d="M 269.250 7.739 C 272.413 7.937, 277.587 7.937, 280.750 7.739 C 283.913 7.541, 281.325 7.378, 275 7.378 C 268.675 7.378, 266.087 7.541, 269.250 7.739 M 251.500 9.039 C 249.610 9.544, 250.904 9.636, 255 9.288 C 258.575 8.984, 261.688 8.570, 261.917 8.367 C 262.675 7.699, 254.555 8.222, 251.500 9.039 M 287.083 8.283 C 287.313 8.439, 288.400 9.226, 289.500 10.033 C 291.350 11.390, 291.397 11.369, 290.128 9.750 C 289.373 8.787, 288.285 8, 287.711 8 C 287.137 8, 286.854 8.127, 287.083 8.283 M 241 11 C 239.020 11.634, 238.916 11.801, 240.500 11.801 C 241.600 11.801, 243.625 11.440, 245 11 C 246.980 10.366, 247.084 10.199, 245.500 10.199 C 244.400 10.199, 242.375 10.560, 241 11 M 229.150 14.123 C 225.658 15.229, 222.973 16.306, 223.184 16.517 C 223.394 16.728, 226.927 15.834, 231.033 14.531 C 235.140 13.229, 237.825 12.151, 237 12.137 C 236.175 12.124, 232.643 13.017, 229.150 14.123 M 290.610 21.863 C 290.215 27.563, 290.098 32.431, 290.348 32.681 C 290.977 33.311, 292.331 14.491, 291.776 12.837 C 291.529 12.102, 291.004 16.163, 290.610 21.863 M 212.738 20.941 C 197.151 28.912, 186.108 38.545, 177.078 52.045 C 171.620 60.204, 165.967 72.593, 164.541 79.516 C 164.203 81.157, 165.443 78.450, 167.295 73.500 C 173.034 58.166, 178.626 49.233, 188.932 38.939 C 196.754 31.126, 202.349 27.187, 213.895 21.367 C 218.628 18.981, 222.038 17.023, 221.472 17.015 C 220.907 17.007, 216.977 18.774, 212.738 20.941 M 288.636 38.636 C 288.283 41.216, 288.186 43.520, 288.422 43.755 C 288.657 43.991, 289.163 42.096, 289.545 39.545 C 289.928 36.995, 290.025 34.691, 289.760 34.427 C 289.496 34.162, 288.990 36.057, 288.636 38.636 M 286.625 48.125 C 285.791 52.293, 286.599 53.101, 287.500 49 C 287.880 47.271, 287.982 45.649, 287.727 45.394 C 287.472 45.139, 286.976 46.368, 286.625 48.125 M 53.250 51.742 C 56.962 51.934, 63.038 51.934, 66.750 51.742 C 70.463 51.549, 67.425 51.392, 60 51.392 C 52.575 51.392, 49.538 51.549, 53.250 51.742 M 39.079 53.265 C 37.747 53.944, 36.458 55.175, 36.214 56 C 35.888 57.102, 36.132 57.042, 37.135 55.772 C 37.886 54.821, 40.300 53.629, 42.500 53.122 C 45.307 52.476, 45.754 52.175, 44 52.115 C 42.625 52.068, 40.411 52.585, 39.079 53.265 M 75.269 52.693 C 76.242 52.947, 77.592 52.930, 78.269 52.656 C 78.946 52.382, 78.150 52.175, 76.500 52.195 C 74.850 52.215, 74.296 52.439, 75.269 52.693 M 80.083 53.367 C 80.313 53.569, 82.300 54.009, 84.500 54.344 C 87.288 54.768, 87.894 54.678, 86.500 54.047 C 84.580 53.177, 79.224 52.610, 80.083 53.367 M 285.079 53.668 C 285.036 54.311, 284.741 55.661, 284.424 56.668 C 283.877 58.409, 283.906 58.412, 284.995 56.712 C 285.626 55.729, 285.920 54.379, 285.650 53.712 C 285.295 52.837, 285.136 52.825, 285.079 53.668 M 92 56.500 C 96.566 58.258, 98.362 58.232, 94.500 56.464 C 92.850 55.708, 90.825 55.104, 90 55.121 C 89.175 55.138, 90.075 55.759, 92 56.500 M 103.500 61.291 C 113.070 66.467, 118.122 70.321, 125.034 77.719 C 132.580 85.796, 137.019 92.913, 141.609 104.297 C 143.428 108.809, 144.935 112.023, 144.958 111.440 C 145.035 109.498, 140.141 97.945, 136.432 91.312 C 129.986 79.785, 115.937 66.571, 103.290 60.141 C 96.669 56.774, 96.836 57.686, 103.500 61.291 M 278.816 69.105 C 276.240 74.547, 274.347 79, 274.609 79 C 275.297 79, 284.369 60.032, 283.896 59.584 C 283.678 59.378, 281.392 63.662, 278.816 69.105 M 36.199 64.500 C 36.199 65.600, 36.560 67.625, 37 69 C 37.634 70.980, 37.801 71.084, 37.801 69.500 C 37.801 68.400, 37.440 66.375, 37 65 C 36.366 63.020, 36.199 62.916, 36.199 64.500 M 222.162 65.675 C 221.600 66.679, 220.916 67.275, 220.642 67 C 220.368 66.725, 215.094 70.550, 208.923 75.500 C 194.499 87.069, 179.014 104.478, 171.564 117.500 C 169.864 120.472, 169.865 120.477, 171.674 118.005 C 182.099 103.762, 189.151 94.979, 194.779 89.227 C 201.688 82.167, 219.078 67.745, 219.806 68.473 C 220.030 68.697, 215.328 75.015, 209.357 82.512 C 183.998 114.353, 176.933 124.776, 178.298 128.335 C 178.650 129.251, 179.739 129.948, 180.719 129.884 C 182.388 129.775, 182.390 129.739, 180.750 129.311 C 178.134 128.627, 178.605 126.122, 182.632 119.315 C 186.215 113.258, 188.990 109.584, 212.369 79.950 C 218.897 71.675, 224.001 64.668, 223.711 64.378 C 223.421 64.087, 222.724 64.671, 222.162 65.675 M 38.086 73 C 38.055 73.825, 38.467 75.175, 39 76 C 40.181 77.828, 40.181 76.249, 39 73.500 C 38.433 72.181, 38.122 72.011, 38.086 73 M 40.626 80 C 41.387 82.986, 48.807 98, 49.522 98 C 49.797 98, 48.303 94.513, 46.202 90.250 C 44.101 85.987, 41.844 81.375, 41.186 80 L 39.989 77.500 40.626 80 M 162.500 87 C 162.116 89.274, 162.011 91.345, 162.268 91.601 C 162.524 91.857, 163.034 90.192, 163.400 87.900 C 163.766 85.608, 163.871 83.538, 163.632 83.299 C 163.394 83.060, 162.884 84.726, 162.500 87 M 258.651 97.270 C 252.685 103.350, 249.535 106.936, 251.651 105.239 C 256.561 101.304, 271.452 85.696, 269.905 86.108 C 269.682 86.167, 264.618 91.190, 258.651 97.270 M 160.668 99.901 C 160.301 103.417, 160.063 108.815, 160.141 111.897 C 160.234 115.589, 160.572 113.749, 161.132 106.500 C 162.065 94.430, 161.733 89.710, 160.668 99.901 M 50.891 100.500 C 54.485 107.681, 68.949 121.882, 77.161 126.294 C 80.372 128.018, 80.405 128.018, 78.035 126.294 C 64.615 116.528, 61.446 113.486, 52.195 101.489 C 50.927 99.845, 50.340 99.400, 50.891 100.500 M 232 116.500 C 227.325 118.920, 223.847 120.922, 224.272 120.950 C 225.335 121.019, 241 113.096, 241 112.489 C 241 111.811, 241.424 111.622, 232 116.500 M 145.031 113.583 C 145.104 115.728, 148.827 130.346, 148.909 128.812 C 149.010 126.937, 146.085 113.752, 145.421 113.088 C 145.190 112.856, 145.014 113.079, 145.031 113.583 M 157.189 122.549 C 154.176 128.749, 154.512 129.617, 157.615 123.652 C 159.003 120.986, 159.967 118.633, 159.757 118.424 C 159.548 118.215, 158.392 120.071, 157.189 122.549 M 166.450 126.099 C 165.028 128.904, 164.033 131.367, 164.238 131.571 C 164.443 131.776, 165.818 129.482, 167.295 126.472 C 168.771 123.462, 169.766 121, 169.506 121 C 169.246 121, 167.871 123.295, 166.450 126.099 M 215 123.500 C 211.425 124.789, 208.975 125.879, 209.556 125.922 C 210.894 126.021, 223 121.956, 223 121.408 C 223 120.734, 221.801 121.048, 215 123.500 M 202 127 C 200.020 127.634, 199.916 127.801, 201.500 127.801 C 202.600 127.801, 204.625 127.440, 206 127 C 207.980 126.366, 208.084 126.199, 206.500 126.199 C 205.400 126.199, 203.375 126.560, 202 127 M 190 129 L 185.500 129.700 189.500 129.731 C 191.700 129.749, 194.850 129.420, 196.500 129 C 199.141 128.328, 199.201 128.240, 197 128.269 C 195.625 128.286, 192.475 128.615, 190 129 M 88 132 C 88.825 132.533, 89.950 132.969, 90.500 132.969 C 91.050 132.969, 90.825 132.533, 90 132 C 89.175 131.467, 88.050 131.031, 87.500 131.031 C 86.950 131.031, 87.175 131.467, 88 132 M 149.158 133 C 149.158 134.375, 149.385 134.938, 149.662 134.250 C 149.940 133.563, 149.940 132.438, 149.662 131.750 C 149.385 131.063, 149.158 131.625, 149.158 133 M 151.700 134.200 C 150.731 135.889, 150.143 137.477, 150.395 137.728 C 150.647 137.980, 151.594 136.752, 152.500 135 C 153.406 133.248, 153.993 131.660, 153.805 131.472 C 153.617 131.283, 152.669 132.511, 151.700 134.200 M 162.571 135.571 C 162.204 137.037, 162.096 138.429, 162.331 138.665 C 162.567 138.900, 163.061 137.894, 163.429 136.429 C 163.796 134.963, 163.904 133.571, 163.669 133.335 C 163.433 133.100, 162.939 134.106, 162.571 135.571 M 96 135 C 96.825 135.533, 98.175 135.945, 99 135.914 C 99.989 135.878, 99.819 135.567, 98.500 135 C 95.751 133.819, 94.172 133.819, 96 135 M 102.500 137 C 103.600 137.473, 105.400 137.846, 106.500 137.830 C 108.108 137.806, 108.010 137.644, 106 137 C 102.581 135.905, 99.952 135.905, 102.500 137 M 116.500 140.035 C 120.460 140.876, 130.720 141.337, 129.917 140.637 C 129.688 140.438, 125.675 140.030, 121 139.730 C 115.067 139.351, 113.708 139.443, 116.500 140.035 M 160.636 144.640 C 160.286 147.191, 160 158.678, 160 170.166 L 160 191.053 228.250 259.578 C 275.698 307.217, 297.052 329.322, 298.310 332.103 C 300.656 337.287, 299.250 342.267, 294.647 345.074 C 292.916 346.129, 292.002 346.994, 292.615 346.996 C 294.822 347.004, 298.878 342.900, 299.988 339.536 C 300.929 336.685, 300.814 335.434, 299.310 332.152 C 298.084 329.474, 275.473 305.995, 229.200 259.350 L 160.900 190.500 161.200 165.250 C 161.365 151.362, 161.449 140, 161.386 140 C 161.323 140, 160.986 142.088, 160.636 144.640 M 133.374 141.877 C 134.405 142.282, 136.108 144.163, 137.159 146.057 C 138.597 148.649, 138.907 148.882, 138.416 147 C 137.562 143.730, 135.097 140.982, 133.095 141.070 C 131.852 141.125, 131.914 141.303, 133.374 141.877 M 140.735 159 C 141.035 162.575, 141.442 165.688, 141.640 165.917 C 142.337 166.724, 141.791 157.469, 140.995 155 C 140.512 153.500, 140.408 155.100, 140.735 159 M 130.508 202.250 C 124.542 208.438, 94.200 239.153, 63.081 270.507 L 6.500 327.514 73.069 261.162 C 131.368 203.052, 143.155 191, 141.685 191 C 141.503 191, 136.473 196.063, 130.508 202.250 M 4.074 330.411 C 3.430 331.187, 2.707 333.549, 2.467 335.661 L 2.031 339.500 3.035 335.578 C 3.588 333.421, 4.536 331.059, 5.142 330.328 C 5.749 329.598, 6.020 329, 5.745 329 C 5.470 329, 4.718 329.635, 4.074 330.411 M 3 340.899 C 3 341.827, 8.886 347.497, 9.258 346.927 C 9.411 346.692, 8.066 345.076, 6.268 343.336 C 4.471 341.595, 3 340.499, 3 340.899 M 50.219 347.750 L 89.937 348.023 90.219 405.261 L 90.500 462.500 93.305 467.272 C 94.848 469.897, 97.965 473.272, 100.231 474.772 L 104.351 477.500 149.426 477.806 C 179.691 478.011, 195.717 477.756, 198.205 477.029 C 202.364 475.814, 207.496 471.873, 209.126 468.642 C 209.721 467.464, 208.808 468.151, 207.097 470.170 C 201.243 477.077, 201.012 477.104, 149.913 476.785 L 104.327 476.500 100.340 473.736 C 98.147 472.216, 95.261 469.066, 93.926 466.736 L 91.500 462.500 91.212 404.750 L 90.923 347 50.712 347.238 L 10.500 347.476 50.219 347.750 M 231.183 347.749 C 242.009 347.910, 260.009 347.910, 271.183 347.749 C 282.358 347.588, 273.500 347.456, 251.500 347.456 C 229.500 347.455, 220.358 347.587, 231.183 347.749 M 211.116 461.168 C 211.052 462.086, 210.741 463.661, 210.424 464.668 C 209.879 466.404, 209.909 466.407, 210.992 464.719 C 211.620 463.739, 211.931 462.164, 211.683 461.219 C 211.277 459.670, 211.221 459.665, 211.116 461.168" stroke="none" fill="#e68068" fill-rule="evenodd"/><path d="M 254 9.467 C 210.283 15.887, 181.182 36.813, 168.308 71.089 C 164.077 82.353, 162.264 91.307, 161.138 106.500 C 160.295 117.873, 160.004 119.015, 155.566 128.358 C 152.991 133.780, 150.717 138.050, 150.513 137.846 C 150.309 137.642, 148.798 131.406, 147.156 123.988 C 142.021 100.795, 136.169 89.169, 123 76 C 105.985 58.985, 87.297 51.950, 59.500 52.094 C 43.612 52.176, 37.910 53.432, 36.616 57.133 C 33.974 64.695, 46.512 95.058, 57.885 108.638 C 63.790 115.690, 72.790 123.105, 81.184 127.833 C 91.544 133.670, 108.013 138.336, 123.986 139.960 C 136.347 141.217, 136.964 141.659, 139.914 151.355 C 141.680 157.158, 142 160.835, 142 175.296 L 142 192.381 74.250 260.203 C 36.988 297.505, 5.713 329.474, 4.750 331.247 C 2.040 336.237, 2.503 339.703, 6.400 343.600 L 9.800 347 50.362 347 L 90.923 347 91.212 404.750 L 91.500 462.500 93.926 466.736 C 95.261 469.066, 98.147 472.216, 100.340 473.736 L 104.327 476.500 150.203 476.779 C 193.531 477.043, 196.320 476.952, 200.398 475.148 C 205.406 472.933, 209.342 468.191, 210.896 462.500 C 211.625 459.831, 211.991 439.943, 211.994 402.750 L 212 347 251.750 346.996 C 289.176 346.993, 291.684 346.880, 294.647 345.074 C 299.250 342.267, 300.656 337.287, 298.310 332.103 C 297.052 329.322, 275.698 307.217, 228.250 259.578 L 160 191.053 160.017 169.277 C 160.042 138.381, 161.633 132.191, 174.479 113.020 C 184.172 98.554, 195.668 86.170, 210.250 74.487 C 217.447 68.721, 223.539 64.206, 223.787 64.454 C 224.035 64.702, 218.897 71.675, 212.369 79.950 C 188.990 109.584, 186.215 113.258, 182.632 119.315 C 178.435 126.410, 178.132 128.540, 181.209 129.344 C 183.706 129.997, 195.515 128.530, 204.500 126.451 C 219.608 122.954, 237.739 114.809, 248.608 106.636 C 255.639 101.350, 266.274 90.369, 270.962 83.555 C 280.360 69.896, 287.801 48.763, 289.928 29.697 C 291.587 14.815, 291.391 11.387, 288.777 9.557 C 286.016 7.622, 266.900 7.573, 254 9.467" stroke="none" fill="#fa4516" fill-rule="evenodd"/></svg>